<?xml version="1.0" encoding="UTF-8" standalone="no"?>
<svg
   xmlns:dc="http://purl.org/dc/elements/1.1/"
   xmlns:cc="http://creativecommons.org/ns#"
   xmlns:rdf="http://www.w3.org/1999/02/22-rdf-syntax-ns#"
   xmlns:svg="http://www.w3.org/2000/svg"
   xmlns="http://www.w3.org/2000/svg"
   id="svg77"
   enable-background="new 0 0 250 164.212"
   viewBox="0 0 39.999999 39.999996"
   height="40"
   width="40"
   version="1.1">
  <defs
     id="defs81" />
  <metadata
     id="metadata117">
    <rdf:RDF>
      <cc:Work
         rdf:about="">
        <dc:format>image/svg+xml</dc:format>
        <dc:type
           rdf:resource="http://purl.org/dc/dcmitype/StillImage" />
        <dc:title></dc:title>
      </cc:Work>
    </rdf:RDF>
  </metadata>
  <g
     transform="matrix(0.97656355,0,0,0.97656355,0.32169328,0.89278832)"
     id="g4703">
    <path
       style="fill:#2e5369;fill-opacity:1"
       d="m 25.1875,-0.85541152 c -0.651561,-0.0421094 -1.396875,0.0126562 -2.25,0.19140624 0,0 -6.805987,0.68441779 -9.837891,13.47851628 -7.0436148,2.593137 -11.9327205,6.276354 -11.3749996,8.851562 0.138698,0.641176 0.6229831,1.157697 1.3574218,1.552735 -0.3667474,-2.262503 3.6068868,-5.397998 9.4843748,-7.765625 -0.06129,0.35344 -0.133691,0.673853 -0.189453,1.042968 0,0 -2.640953,19.966235 -12.376953,21.615235 0,0 13.531391,3.465687 18.150391,-21.945313 0,0 0.189705,-1.120652 0.550781,-2.693359 7.533069,-1.87632 13.824698,-1.439668 14.517578,1.101562 0.487424,-0.747533 0.706425,-1.46082 0.566406,-2.103515 -0.577683,-2.6660234 -6.802558,-3.2298584 -14.443359,-1.501953 1.19053,-4.163426 3.31255,-9.3330291 6.564453,-9.4902352 3.329,-0.1579999 3.796875,2.9707032 3.796875,2.9707032 0,0 0.0453,-5.00992192 -4.515625,-5.30468752 z"
       id="path722" />
    <path
       style="fill:#137c88;fill-opacity:1"
       d="m 32.806641,3.746151 c -0.82659,-0.014218 -1.722901,0.1383804 -2.654297,0.5175781 -0.05267,0.08078 -0.102743,0.1648898 -0.154297,0.2480469 0.773521,0.1316632 5.036227,0.9930497 6.330078,4.5527344 0,0 3.227174,10.4081356 -11.705078,13.5527346 -0.07364,0.244364 -0.152932,0.46818 -0.228516,0.705078 2.794516,0.351161 6.751117,1.367903 8.148438,4.310547 0,0 3.430656,5.678438 -3.902344,8.398438 -2.894238,1.073548 -13.269766,2.360777 -15.953125,-2.087891 -1.775483,1.906248 -3.5791903,2.981054 -5.1953125,3.587891 5.4257745,2.239045 22.5368235,5.357417 29.1914065,-3.03711 0,0 5.05725,-6.625015 -4.96875,-11.416015 0,0 6.496234,-2.600469 7.865234,-7.855469 0.621,-2.391 1.893969,-5.6282504 -1.832031,-9.5312505 0,0 -2.063656,-1.8958125 -4.941406,-1.9453125 z m -0.535157,7.863282 c 0.513843,2.79261 -5.604505,7.099789 -13.792968,9.679687 -8.189784,2.581418 -15.364955,2.464686 -16.1601566,-0.238281 -0.4742145,0.759687 -0.6766657,1.482523 -0.5234375,2.11914 0.7053782,2.9643 8.4108821,3.116175 17.2109371,0.341797 8.800055,-2.771339 15.360997,-7.423937 14.654297,-10.386718 -0.149265,-0.638137 -0.644987,-1.13882 -1.388672,-1.515625 z m -11.25,14.580078 c -1.59169,2.375781 -3.961231,4.452593 -5.046875,6.064453 0.783445,0.336617 8.213399,2.525404 10.191407,-1.101563 1.99403,-3.655722 -3.218527,-4.502664 -5.144532,-4.96289 z"
       id="path4692" />
  </g>
</svg>
